<svg width="320" height="320" viewBox="0 0 320 320" xmlns="http://www.w3.org/2000/svg">
  <defs>
    <linearGradient id="bg" x1="0" y1="0" x2="1" y2="1">
      <stop offset="0" stop-color="#f5f5f7"/>
      <stop offset="1" stop-color="#e5ecff"/>
    </linearGradient>
  </defs>
  <rect width="320" height="320" rx="160" fill="url(#bg)"/>
  <circle cx="160" cy="124" r="64" fill="#d4ddf5"/>
  <circle cx="140" cy="118" r="10" fill="#ffffff"/>
  <circle cx="180" cy="118" r="10" fill="#ffffff"/>
  <circle cx="140" cy="118" r="4" fill="#2b59c3"/>
  <circle cx="180" cy="118" r="4" fill="#2b59c3"/>
  <path d="M132 150c8 10 18 15 28 15s20-5 28-15" stroke="#2b59c3" stroke-width="4" stroke-linecap="round" fill="none"/>
  <path d="M80 244c18-40 44-60 80-60s62 20 80 60" fill="#ffffff"/>
  <path d="M80 244c18-28 44-42 80-42s62 14 80 42" fill="#eef2fb"/>
</svg>



