<svg xmlns="http://www.w3.org/2000/svg" width="160" height="160" viewBox="0 0 160 160">
  <defs>
    <style>.cls-1{fill:#f5f5f7;}.cls-2{fill:#e5ecff;}.cls-3{fill:#000;}.cls-4{fill:#fff;}.cls-5{fill:#3b82f6;}.cls-6{fill:#ef4444;}</style>
  </defs>
  <g id="Layer_2" data-name="Layer 2">
    <g id="Layer_1-2" data-name="Layer 1">
      <ellipse class="cls-1" cx="80" cy="80" rx="80" ry="80"/>
      <ellipse class="cls-2" cx="80" cy="80" rx="75" ry="75"/>
      <circle class="cls-3" cx="80" cy="80" r="60"/>
      <path class="cls-4" d="M120,80c0,22-18,40-40,40s-40-18-40-40,18-40,40-40,40,18,40,40Z"/>
      <path class="cls-5" d="M100,80a20,20,0,1,1-40,0,20,20,0,1,1,40,0Z"/>
      <path class="cls-6" d="M90,70a10,10,0,1,1-20,0,10,10,0,1,1,20,0Z"/>
      <path class="cls-6" d="M110,70a10,10,0,1,1-20,0,10,10,0,1,1,20,0Z"/>
      <path class="cls-6" d="M100,90a10,10,0,1,1-20,0,10,10,0,1,1,20,0Z"/>
      <path class="cls-6" d="M100,110a10,10,0,1,1-20,0,10,10,0,1,1,20,0Z"/>
      <path class="cls-6" d="M100,130a10,10,0,1,1-20,0,10,10,0,1,1,20,0Z"/>
    </g>
  </g>
</svg>